#!OML:ASF F:\VICON\USERDATA\INSTALL\rory3\rory3.ASF
:FULLY-SPECIFIED
:DEGREES
2344
root 0.846285 17.7963 -7.20733 9.77013 6.16783 1.83898
lowerback 9.69789 -1.48933 -8.94499
upperback 2.89933 -2.84709 -1.17924
thorax -2.01888 -1.41228 4.10209
lowerneck -15.2241 -12.765 -17.0996
upperneck 13.8136 -16.0783 13.4733
head 9.36421 -7.36164 5.02632
rclavicle -9.54166e-015 -1.66979e-014
rhumerus 0.309575 20.6675 -83.9915
rradius 61.0758
rwrist 15.131
rhand -32.5881 2.79162
rfingers 7.12502
rthumb -5.81654 -27.1085
lclavicle -9.54166e-015 -1.66979e-014
lhumerus -17.0725 -15.0196 89.6573
lradius 46.642
lwrist -0.761232
lhand -11.4496 25.3131
lfingers 7.12502
lthumb 14.5874 54.7801
rfemur -34.668 -3.25017 12.7897
rtibia 23.7627
rfoot -13.6211 -14.6196
rtoes 4.67085
lfemur -13.2377 -2.0894 -22.5229
ltibia 23.418
lfoot -16.6173 -4.31873
ltoes -11.3219
2345
root 0.821479 17.7956 -7.20341 9.98094 6.26843 1.81371
lowerback 10.0002 -1.39212 -8.97104
upperback 2.97033 -2.74793 -1.15365
thorax -2.12176 -1.36033 4.14441
lowerneck -15.0774 -12.8607 -17.1886
upperneck 13.5556 -16.23 13.6794
head 9.30302 -7.42807 5.0881
rclavicle 2.38542e-015 2.22639e-014
rhumerus -0.275227 20.3885 -84.351
rradius 60.8079
rwrist 15.42
rhand -32.2976 2.81778
rfingers 7.12502
rthumb -5.53603 -27.0899
lclavicle 2.38542e-015 2.22639e-014
lhumerus -17.2082 -14.9413 89.4142
lradius 46.0154
lwrist -0.925602
lhand -10.4187 27.062
lfingers 7.12502
lthumb 15.5804 56.4544
rfemur -34.7664 -2.94692 12.7248
rtibia 23.4523
rfoot -13.898 -14.8138
rtoes 5.14723
lfemur -13.5371 -1.96455 -22.386
ltibia 23.5204
lfoot -16.6196 -4.53166
ltoes -11.0315
2346
root 0.800648 17.7951 -7.19916 10.5301 6.84086 1.92588
lowerback 9.92721 -1.49642 -8.89294
upperback 3.03871 -2.86459 -1.15666
thorax -1.99803 -1.42514 4.10457
lowerneck -14.8311 -12.9431 -17.2149
upperneck 13.1614 -16.3774 13.8853
head 9.17232 -7.49614 5.14595
rclavicle -9.14409e-015 1.03368e-014
rhumerus -0.782629 20.0098 -84.6957
rradius 60.2349
rwrist 16.2942
rhand -32.6154 3.41422
rfingers 7.12502
rthumb -5.84287 -26.4852
lclavicle -9.14409e-015 1.03368e-014
lhumerus -17.1708 -14.9572 89.0942
lradius 45.2736
lwrist -1.22911
lhand -10.7076 26.937
lfingers 7.12502
lthumb 15.3022 56.3509
rfemur -35.0716 -3.05367 12.5496
rtibia 23.1207
rfoot -14.197 -15.0908
rtoes 5.48349
lfemur -14.2514 -2.20682 -22.3156
ltibia 23.6259
lfoot -16.5228 -4.93519
ltoes -10.5394
2347
root 0.778615 17.7972 -7.19612 10.9543 7.1078 1.9459
lowerback 9.96574 -1.49968 -8.81386
upperback 3.13708 -2.85797 -1.15141
thorax -1.92075 -1.42767 4.06438
lowerneck -14.6737 -12.9862 -17.1542
upperneck 12.825 -16.4605 13.9965
head 9.04986 -7.53394 5.16673
rclavicle 2.38542e-015 -1.03368e-014
rhumerus -1.3055 19.6931 -85.0569
rradius 59.7243
rwrist 17.0576
rhand -32.7907 4.00648
rfingers 7.12502
rthumb -6.01214 -25.8882
lclavicle 2.38542e-015 -1.03368e-014
lhumerus -17.2282 -14.7538 88.7085
lradius 44.6923
lwrist -1.8465
lhand -12.3723 24.1761
lfingers 7.12502
lthumb 13.6983 53.7053
rfemur -35.3661 -3.04034 12.5226
rtibia 22.8865
rfoot -14.1871 -15.2429
rtoes 4.9591
lfemur -14.7618 -2.27239 -22.2072
ltibia 23.6578
lfoot -16.5004 -5.11276
ltoes -10.5562
2348
root 0.755349 17.8019 -7.19257 11.2539 7.26158 1.86375
lowerback 10.2081 -1.46474 -8.64484
upperback 3.1911 -2.81603 -1.12692
thorax -2.01106 -1.40397 4.0006
lowerneck -14.5711 -13.0079 -17.1996
upperneck 12.6511 -16.5006 14.1149
head 8.99572 -7.55197 5.21125
rclavicle 3.22031e-014 1.59028e-014
rhumerus -1.9591 19.4292 -85.4633
rradius 59.3166
rwrist 17.5539
rhand -32.4057 4.13205
rfingers 7.12502
rthumb -5.64043 -25.7729
lclavicle 3.22031e-014 1.59028e-014
lhumerus -17.6069 -14.3079 88.3878
lradius 44.2743
lwrist -2.31299
lhand -11.444 25.5755
lfingers 7.12502
lthumb 14.5927 55.0421
rfemur -35.5832 -2.80587 12.5532
rtibia 22.764
rfoot -14.2657 -15.3468
rtoes 4.60897
lfemur -15.0976 -2.24282 -22.0129
ltibia 23.6145
lfoot -16.4681 -5.17573
ltoes -11.0369
2349
root 0.731956 17.8098 -7.18989 11.5619 7.53783 1.986
lowerback 10.553 -1.48219 -8.65492
upperback 3.22586 -2.87199 -1.1051
thorax -2.15523 -1.42592 4.04879
lowerneck -14.4995 -13.0241 -17.3682
upperneck 12.6114 -16.5161 14.2343
head 8.99969 -7.56105 5.27744
rclavicle -1.82882e-014 -3.18055e-015
rhumerus -2.72495 19.2393 -85.8248
rradius 58.953
rwrist 18.0624
rhand -31.957 4.08316
rfingers 7.12502
rthumb -5.20723 -25.8329
lclavicle -1.82882e-014 -3.18055e-015
lhumerus -17.9389 -13.8066 88.1594
lradius 43.5431
lwrist -2.16792
lhand -11.7567 25.7579
lfingers 7.12502
lthumb 14.2915 55.246
rfemur -35.7117 -2.63256 12.3185
rtibia 22.6672
rfoot -14.5999 -15.4074
rtoes 5.01959
lfemur -15.4184 -2.41506 -22.0012
ltibia 23.545
lfoot -16.3842 -5.31756
ltoes -10.8351
2350
root 0.706694 17.812 -7.18326 11.8847 7.93694 2.19104
lowerback 10.8695 -1.5121 -8.75054
upperback 3.31138 -2.94653 -1.07448
thorax -2.22209 -1.46178 4.15379
lowerneck -14.3988 -13.085 -17.4751
upperneck 12.4878 -16.6007 14.3442
head 8.97516 -7.60267 5.31929
rclavicle -3.97569e-016 1.59028e-015
rhumerus -3.51022 18.9983 -86.1415
rradius 58.5404
rwrist 18.6216
rhand -31.6672 3.99282
rfingers 7.12502
rthumb -4.92744 -25.9299
lclavicle -3.97569e-016 1.59028e-015
lhumerus -18.1434 -13.3985 87.9492
lradius 42.5867
lwrist -1.6623
lhand -12.5414 25.6973
lfingers 7.12502
lthumb 13.5353 55.2374
rfemur -35.8114 -2.58917 12.0369
rtibia 22.5563
rfoot -14.9666 -15.4868
rtoes 5.78783
lfemur -15.7597 -2.6369 -22.0431
ltibia 23.513
lfoot -16.3632 -5.49879
ltoes -10.9743
2351
root 0.680342 17.808 -7.16931 12.2069 8.27586 2.28638
lowerback 11.0521 -1.53174 -8.74848
upperback 3.46409 -2.97908 -1.04298
thorax -2.15526 -1.48473 4.19314
lowerneck -14.2553 -13.1631 -17.5417
upperneck 12.1818 -16.722 14.5413
head 8.89356 -7.65713 5.3801
rclavicle 2.74323e-014 1.59028e-014
rhumerus -4.06989 18.7805 -86.4557
rradius 57.866
rwrist 18.9926
rhand -31.4751 3.77833
rfingers 7.12502
rthumb -4.74193 -26.1486
lclavicle 2.74323e-014 1.59028e-014
lhumerus -18.2304 -12.8132 87.5962
lradius 41.6892
lwrist -1.74749
lhand -13.0767 25.5882
lfingers 7.12502
lthumb 13.0192 55.162
rfemur -35.9507 -2.47529 11.9056
rtibia 22.4383
rfoot -15.2882 -15.6127
rtoes 6.12438
lfemur -16.1265 -2.78713 -21.972
ltibia 23.5397
lfoot -16.3778 -5.64497
ltoes -11.1858
2352
root 0.651318 17.8051 -7.15753 12.6124 8.32482 2.2618
lowerback 11.1389 -1.46756 -8.71583
upperback 3.59893 -2.88903 -0.989397
thorax -2.07168 -1.44758 4.22115
lowerneck -14.2478 -13.2412 -17.6057
upperneck 11.9478 -16.8185 14.6877
head 8.85064 -7.69679 5.42111
rclavicle 4.57205e-014 3.26007e-014
rhumerus -4.50229 18.6095 -86.7361
rradius 57.024
rwrist 19.5215
rhand -31.8392 3.91419
rfingers 7.12502
rthumb -5.0935 -26.0046
lclavicle 4.57205e-014 3.26007e-014
lhumerus -18.1955 -11.8848 87.1928
lradius 40.7311
lwrist -2.41832
lhand -13.6278 24.7262
lfingers 7.12502
lthumb 12.488 54.3331
rfemur -36.2447 -2.25715 11.955
rtibia 22.2636
rfoot -15.3008 -15.6962
rtoes 5.93849
lfemur -16.6272 -2.61131 -21.8371
ltibia 23.6734
lfoot -16.4651 -5.79333
ltoes -11.6781
2353
root 0.623158 17.8045 -7.15101 13.0766 8.2987 2.29436
lowerback 11.2632 -1.37025 -8.71161
upperback 3.70295 -2.76474 -0.948606
thorax -2.04492 -1.39007 4.25012
lowerneck -14.2962 -13.3252 -17.6712
upperneck 11.7993 -16.9164 14.8011
head 8.84343 -7.7361 5.44789
rclavicle 3.49861e-014 -1.43125e-014
rhumerus -4.96524 18.375 -87.007
rradius 55.9955
rwrist 20.5008
rhand -32.6314 4.18127
rfingers 7.12502
rthumb -5.85836 -25.7177
lclavicle 3.49861e-014 -1.43125e-014
lhumerus -18.2459 -11.0312 86.8977
lradius 39.7092
lwrist -2.02772
lhand -13.0899 27.5222
lfingers 7.12502
lthumb 13.0065 57.0967
rfemur -36.5969 -2.15985 11.99
rtibia 21.9992
rfoot -15.1291 -15.7655
rtoes 5.80255
lfemur -17.2444 -2.51214 -21.7806
ltibia 23.9663
lfoot -16.6205 -5.76431
ltoes -12.1134
2354
root 0.595919 17.8019 -7.1449 13.565 8.39811 2.44088
lowerback 11.4994 -1.29414 -8.65909
upperback 3.72518 -2.68248 -1.00433
thorax -2.16769 -1.34349 4.16207
lowerneck -14.1114 -13.3985 -17.6786
upperneck 11.6052 -17.0558 14.962
head 8.78782 -7.80096 5.48606
rclavicle 7.95139e-015 -5.56597e-015
rhumerus -5.64784 18.0101 -87.3881
rradius 54.9118
rwrist 21.3754
rhand -32.9977 3.98917
rfingers 7.12502
rthumb -6.21195 -25.8998
lclavicle 7.95139e-015 -5.56597e-015
lhumerus -18.564 -10.5331 86.6105
lradius 38.7034
lwrist -0.499096
lhand -15.0682 26.9853
lfingers 7.12502
lthumb 11.099 56.6718
rfemur -36.9655 -2.13216 11.8839
rtibia 21.7783
rfoot -15.079 -15.9635
rtoes 6.00527
lfemur -17.9073 -2.62051 -21.8099
ltibia 24.2616
lfoot -16.6587 -5.73721
ltoes -12.1833
2355
root 0.568188 17.794 -7.15055 14.2901 7.91015 2.30402
lowerback 11.5082 -1.02735 -8.53002
upperback 3.66878 -2.32272 -1.024
thorax -2.28725 -1.15851 4.02822
lowerneck -13.9614 -13.4987 -17.6139
upperneck 11.3559 -17.2219 15.0594
head 8.71107 -7.87959 5.48508
rclavicle -5.08889e-014 -5.40694e-014
rhumerus -6.25954 17.6966 -87.6513
rradius 53.8422
rwrist 22.0655
rhand -33.1057 3.44347
rfingers 7.12502
rthumb -6.31629 -26.4424
lclavicle -5.08889e-014 -5.40694e-014
lhumerus -18.6679 -9.58723 86.1317
lradius 37.8576
lwrist -1.19878
lhand -15.7134 26.4536
lfingers 7.12502
lthumb 10.4766 56.1725
rfemur -37.9144 -1.91347 12.1315
rtibia 21.6205
rfoot -14.5698 -16.0663
rtoes 6.0416
lfemur -18.8703 -2.52073 -21.6438
ltibia 24.4896
lfoot -16.6208 -5.25784
ltoes -12.4623
2356
root 0.541663 17.7958 -7.14798 14.7827 7.89158 2.27374
lowerback 11.5605 -0.947002 -8.48453
upperback 3.90957 -2.19858 -0.930218
thorax -2.07602 -1.11285 4.08284
lowerneck -14.1047 -13.609 -17.5858
upperneck 10.9796 -17.3347 15.187
head 8.64006 -7.92022 5.4952
rclavicle 3.10104e-014 2.54444e-014
rhumerus -6.38052 17.7085 -87.6489
rradius 52.6358
rwrist 22.7129
rhand -33.4578 3.06827
rfingers 7.12502
rthumb -6.65617 -26.8071
lclavicle 3.10104e-014 2.54444e-014
lhumerus -18.3372 -7.91492 85.548
lradius 36.8179
lwrist -3.10232
lhand -16.7504 24.3544
lfingers 7.12502
lthumb 9.47617 54.1214
rfemur -38.4219 -1.823 12.2177
rtibia 21.4948
rfoot -14.4385 -16.4104
rtoes 6.68677
lfemur -19.4877 -2.6987 -21.5012
ltibia 24.6288
lfoot -16.6823 -4.92308
ltoes -13.3481
2357
root 0.518745 17.8018 -7.1379 15.1604 7.98411 2.32928
lowerback 11.5852 -0.925339 -8.46156
upperback 4.28191 -2.14351 -0.843782
thorax -1.70119 -1.11181 4.14697
lowerneck -14.2703 -13.6993 -17.5994
upperneck 10.5351 -17.4084 15.3667
head 8.55338 -7.94077 5.53562
rclavicle 1.66979e-014 1.74931e-014
rhumerus -6.33915 17.6004 -87.6492
rradius 51.3127
rwrist 23.689
rhand -33.6678 3.01518
rfingers 7.12502
rthumb -6.85894 -26.8537
lclavicle 1.66979e-014 1.74931e-014
lhumerus -18.0055 -6.16736 85.0181
lradius 35.6662
lwrist -4.41409
lhand -17.6183 23.2026
lfingers 7.12502
lthumb 8.6387 53.0059
rfemur -38.7427 -1.87832 12.2438
rtibia 21.3694
rfoot -14.2369 -16.771
rtoes 7.30595
lfemur -19.9034 -2.98235 -21.4291
ltibia 24.724
lfoot -16.6539 -4.6765
ltoes -13.8125
2358
root 0.493767 17.8064 -7.12804 15.6069 8.11722 2.2927
lowerback 11.8568 -0.888036 -8.25532
upperback 4.37519 -2.09018 -0.774016
thorax -1.7645 -1.08393 4.10546
lowerneck -14.1039 -13.7703 -17.618
upperneck 10.1713 -17.5115 15.5073
head 8.43859 -7.9939 5.57484
rclavicle 1.63003e-014 4.37326e-014
rhumerus -6.77493 17.2343 -87.8421
rradius 50.0516
rwrist 24.881
rhand -33.6061 2.95846
rfingers 7.12502
rthumb -6.79936 -26.9124
lclavicle 1.63003e-014 4.37326e-014
lhumerus -18.2056 -4.88497 84.6704
lradius 34.5423
lwrist -3.82105
lhand -16.8443 25.0839
lfingers 7.12502
lthumb 9.38561 54.8549
rfemur -39.2027 -1.8611 12.3329
rtibia 21.2937
rfoot -14.0053 -17.2597
rtoes 8.2344
lfemur -20.3894 -3.24871 -21.2242
ltibia 24.7039
lfoot -16.4899 -4.52236
ltoes -13.4785
